<svg width="495" height="368" viewBox="0 0 495 368" fill="none" xmlns="http://www.w3.org/2000/svg">
<path d="M494.268 239.97H414.375V160.076H494.268V239.97Z" fill="#181C20"/>
<path d="M94.8934 159.814H15V79.921H94.8934V159.814Z" fill="#181C20"/>
<path d="M334.893 319.658H255V239.765H334.893V319.658Z" fill="#181C20"/>
<path d="M334.247 319.658H343.129V310.776H334.247V319.658Z" fill="#181C20"/>
<path d="M343.618 310.752H352.5V301.87H343.618V310.752Z" fill="#181C20"/>
<path d="M352.993 319.658H361.875V310.776H352.993V319.658Z" fill="#181C20"/>
<path d="M334.247 301.846H343.129V292.963H334.247V301.846Z" fill="#181C20"/>
<path d="M352.993 301.846H361.875V292.963H352.993V301.846Z" fill="#181C20"/>
<path d="M360.497 310.752H369.379V301.87H360.497V310.752Z" fill="#181C20"/>
<path d="M343.618 292.939H352.5V284.057H343.618V292.939Z" fill="#181C20"/>
<path d="M334.247 284.033H343.129V275.151H334.247V284.033Z" fill="#181C20"/>
<path d="M352.993 284.033H361.875V275.151H352.993V284.033Z" fill="#181C20"/>
<path d="M360.497 292.939H369.379V284.057H360.497V292.939Z" fill="#181C20"/>
<path d="M343.618 275.127H352.5V266.245H343.618V275.127Z" fill="#181C20"/>
<path d="M334.247 266.688H343.129V257.806H334.247V266.688Z" fill="#181C20"/>
<path d="M352.993 266.688H361.875V257.806H352.993V266.688Z" fill="#181C20"/>
<path d="M360.497 275.127H369.379V266.245H360.497V275.127Z" fill="#181C20"/>
<path d="M343.618 257.782H352.5V248.9H343.618V257.782Z" fill="#181C20"/>
<path d="M334.247 248.876H343.129V239.994H334.247V248.876Z" fill="#181C20"/>
<path d="M352.993 248.876H361.875V239.994H352.993V248.876Z" fill="#181C20"/>
<path d="M360.497 257.782H369.379V248.9H360.497V257.782Z" fill="#181C20"/>
<path d="M369.868 319.658H378.75V310.776H369.868V319.658Z" fill="#181C20"/>
<path d="M379.243 310.752H388.125V301.87H379.243V310.752Z" fill="#181C20"/>
<path d="M388.618 319.658H397.5V310.776H388.618V319.658Z" fill="#181C20"/>
<path d="M369.868 301.846H378.75V292.963H369.868V301.846Z" fill="#181C20"/>
<path d="M388.618 301.846H397.5V292.963H388.618V301.846Z" fill="#181C20"/>
<path d="M396.121 310.752H405.004V301.87H396.121V310.752Z" fill="#181C20"/>
<path d="M379.243 292.939H388.125V284.057H379.243V292.939Z" fill="#181C20"/>
<path d="M369.868 284.033H378.75V275.151H369.868V284.033Z" fill="#181C20"/>
<path d="M388.618 284.033H397.5V275.151H388.618V284.033Z" fill="#181C20"/>
<path d="M396.121 292.939H405.004V284.057H396.121V292.939Z" fill="#181C20"/>
<path d="M379.243 275.127H388.125V266.245H379.243V275.127Z" fill="#181C20"/>
<path d="M369.868 266.688H378.75V257.806H369.868V266.688Z" fill="#181C20"/>
<path d="M388.618 266.688H397.5V257.806H388.618V266.688Z" fill="#181C20"/>
<path d="M396.121 275.127H405.004V266.245H396.121V275.127Z" fill="#181C20"/>
<path d="M379.243 257.782H388.125V248.9H379.243V257.782Z" fill="#181C20"/>
<path d="M369.868 248.876H378.75V239.994H369.868V248.876Z" fill="#181C20"/>
<path d="M388.618 248.876H397.5V239.994H388.618V248.876Z" fill="#181C20"/>
<path d="M405.493 319.658H414.375V310.776H405.493V319.658Z" fill="#181C20"/>
<path d="M405.493 301.846H414.375V292.963H405.493V301.846Z" fill="#181C20"/>
<path d="M405.493 284.033H414.375V275.151H405.493V284.033Z" fill="#181C20"/>
<path d="M405.493 266.688H414.375V257.806H405.493V266.688Z" fill="#181C20"/>
<path d="M405.493 248.876H414.375V239.994H405.493V248.876Z" fill="#181C20"/>
<path d="M396.121 257.782H405.004V248.9H396.121V257.782Z" fill="#181C20"/>
<path d="M442.002 319.658H433.125V239.765H442.002V319.658Z" fill="#181C20"/>
<path d="M458.877 319.658H450V239.765H458.877V319.658Z" fill="#181C20"/>
<path d="M475.756 319.658H466.879V239.765H475.756V319.658Z" fill="#181C20"/>
<path d="M494.502 319.658H485.625V239.765H494.502V319.658Z" fill="#181C20"/>
<path d="M423.257 319.658H414.375V239.765H423.257V319.658Z" fill="#181C20"/>
<path d="M316.381 80.126H307.504V0.232544H316.381V80.126Z" fill="#181C20"/>
<path d="M299.502 80.126H290.625V0.232544H299.502V80.126Z" fill="#181C20"/>
<path d="M280.756 80.126H271.879V0.232544H280.756V80.126Z" fill="#181C20"/>
<path d="M263.878 80.126H255V0.232544H263.878V80.126Z" fill="#181C20"/>
<path d="M335.132 80.126H326.25V0.232544H335.132V80.126Z" fill="#181C20"/>
<path d="M334.482 62.3145H414.375V53.4374H334.482V62.3145Z" fill="#181C20"/>
<path d="M334.482 44.502H414.375V35.6249H334.482V44.502Z" fill="#181C20"/>
<path d="M334.482 26.6895H414.375V17.8124H334.482V26.6895Z" fill="#181C20"/>
<path d="M413.647 8.87695H333.754V-9.15527e-05H413.647V8.87695Z" fill="#181C20"/>
<path d="M334.482 80.126H414.375V71.2436H334.482V80.126Z" fill="#181C20"/>
<path fill-rule="evenodd" clip-rule="evenodd" d="M333.754 80.3898V89.2668C338.657 89.2668 342.631 85.2926 342.631 80.3898H333.754ZM333.754 98.1439V107.021C348.462 107.021 360.385 95.0977 360.385 80.3898H351.508C351.508 90.1949 343.559 98.1439 333.754 98.1439ZM333.754 124.775V115.898C353.365 115.898 369.262 100.001 369.262 80.3898H378.139C378.139 104.903 358.267 124.775 333.754 124.775ZM333.754 133.652V142.529C368.073 142.529 395.893 114.708 395.893 80.3898H387.016C387.016 109.806 363.17 133.652 333.754 133.652ZM333.754 151.406V160.283C377.878 160.283 413.647 124.514 413.647 80.3898H404.77C404.77 119.611 372.975 151.406 333.754 151.406Z" fill="#181C20"/>
<path fill-rule="evenodd" clip-rule="evenodd" d="M334.893 399.813V390.936C329.991 390.936 326.016 394.911 326.016 399.813H334.893ZM334.893 382.059V373.182C320.185 373.182 308.262 385.106 308.262 399.813H317.139C317.139 390.008 325.088 382.059 334.893 382.059ZM334.893 355.428V364.305C315.283 364.305 299.385 380.203 299.385 399.813H290.508C290.508 375.3 310.38 355.428 334.893 355.428ZM334.893 346.551V337.674C300.575 337.674 272.754 365.495 272.754 399.813H281.631C281.631 370.398 305.478 346.551 334.893 346.551ZM334.893 328.797V319.92C290.77 319.92 255 355.69 255 399.813H263.877C263.877 360.592 295.672 328.797 334.893 328.797Z" fill="#181C20"/>
<path fill-rule="evenodd" clip-rule="evenodd" d="M414.375 399.813H423.252C423.252 394.911 419.278 390.936 414.375 390.936V399.813ZM432.129 399.813H441.006C441.006 385.106 429.083 373.182 414.375 373.182V382.059C424.18 382.059 432.129 390.008 432.129 399.813ZM458.76 399.813H449.883C449.883 380.203 433.986 364.305 414.375 364.305V355.428C438.888 355.428 458.76 375.3 458.76 399.813ZM467.637 399.813H476.514C476.514 365.495 448.694 337.674 414.375 337.674V346.551C443.791 346.551 467.637 370.398 467.637 399.813ZM485.391 399.813H494.268C494.268 355.69 458.499 319.92 414.375 319.92V328.797C453.596 328.797 485.391 360.592 485.391 399.813Z" fill="#181C20"/>
<path fill-rule="evenodd" clip-rule="evenodd" d="M95.625 80.126H104.502C104.502 75.2232 100.528 71.2489 95.625 71.2489V80.126ZM113.379 80.126H122.256C122.256 65.418 110.333 53.4948 95.625 53.4948V62.3719C105.43 62.3719 113.379 70.3208 113.379 80.126ZM140.01 80.126H131.133C131.133 60.5152 115.236 44.6178 95.625 44.6178V35.7407C120.138 35.7407 140.01 55.6125 140.01 80.126ZM148.887 80.126H157.764C157.764 45.8073 129.944 17.9866 95.625 17.9866V26.8637C125.041 26.8637 148.887 50.7101 148.887 80.126ZM166.641 80.126H175.518C175.518 36.0022 139.749 0.232544 95.625 0.232544V9.1096C134.846 9.1096 166.641 40.9045 166.641 80.126Z" fill="#181C20"/>
<path fill-rule="evenodd" clip-rule="evenodd" d="M254.272 0.232544H245.395C245.395 5.13534 249.37 9.1096 254.272 9.1096V0.232544ZM236.518 0.232544H227.641C227.641 14.9405 239.564 26.8637 254.272 26.8637V17.9866C244.467 17.9866 236.518 10.0377 236.518 0.232544ZM209.887 0.232544H218.764C218.764 19.8433 234.662 35.7407 254.272 35.7407V44.6178C229.759 44.6178 209.887 24.7461 209.887 0.232544ZM201.01 0.232544H192.133C192.133 34.5512 219.954 62.3719 254.272 62.3719V53.4948C224.856 53.4948 201.01 29.6484 201.01 0.232544ZM183.256 0.232544H174.379C174.379 44.3564 210.149 80.126 254.272 80.126V71.2489C215.051 71.2489 183.256 39.454 183.256 0.232544Z" fill="#181C20"/>
<path d="M414.375 79.9996H494.268V159.893C450.145 159.893 414.375 124.123 414.375 79.9996Z" fill="#181C20"/>
<path d="M334.893 79.921V159.814H255C255 115.691 290.77 79.921 334.893 79.921Z" fill="#181C20"/>
<path d="M334.893 170.906L324.063 160.076H334.893V170.906ZM334.893 183.467V196.028L298.941 160.076H311.502L334.893 183.467ZM334.893 208.589V221.15L273.819 160.076H286.38L334.893 208.589ZM255 239.97V229.139L265.83 239.97H255ZM290.952 239.97H278.391L255 216.578V204.018L290.952 239.97ZM316.074 239.97H303.513L255 191.457V178.896L316.074 239.97ZM261.258 160.076H255V166.334L328.635 239.97H334.893V233.711L261.258 160.076Z" fill="#181C20"/>
</svg>
